<?xml version="1.0" encoding="UTF-8"?>
<svg width="984px" height="984px" viewBox="0 0 984 984" version="1.1" xmlns="http://www.w3.org/2000/svg" xmlns:xlink="http://www.w3.org/1999/xlink">
    <!-- Generator: Sketch 44.1 (41455) - http://www.bohemiancoding.com/sketch -->
    <title>texture-home</title>
    <desc>Created with Sketch.</desc>
    <defs></defs>
    <g id="assets" stroke="none" stroke-width="1" fill="none" fill-rule="evenodd">
        <path d="M491.927015,5.68434189e-14 L0,491.927015 L491.927015,983.854029 L983.854841,491.927827 L491.927015,5.68434189e-14 Z M34.4600054,491.927015 L491.927015,34.4600054 L949.394836,491.927827 L491.927015,949.394024 L34.4600054,491.927015 Z M60.747273,491.927015 L491.927015,923.106756 L923.107568,491.927827 L491.927015,60.747273 L60.747273,491.927015 Z M92.283222,491.927015 L491.927015,92.2840342 L891.570807,491.927827 L491.927015,891.570807 L92.283222,491.927015 Z M121.494546,491.927015 L491.927015,862.359483 L862.360295,491.927827 L491.927015,121.493734 L121.494546,491.927015 Z M150.107251,491.927015 L491.927015,150.106439 L833.747591,491.927827 L491.927015,833.746778 L150.107251,491.927015 Z M182.241819,491.927015 L491.927015,801.613022 L801.613022,491.927827 L491.927015,182.241007 L182.241819,491.927015 Z M207.930467,491.927015 L491.927015,207.929655 L775.924374,491.927827 L491.927015,775.924374 L207.930467,491.927015 Z M242.98828,491.927015 L491.927015,740.865749 L740.865749,491.927827 L491.927015,242.98828 L242.98828,491.927015 Z M265.753684,491.927015 L491.927015,265.753684 L718.100345,491.927827 L491.927015,718.100345 L265.753684,491.927015 Z M303.735553,491.927015 L491.927015,680.118476 L680.119289,491.927827 L491.927015,303.736365 L303.735553,491.927015 Z M323.5769,491.927015 L491.927015,323.5769 L660.277941,491.927827 L491.927015,660.277129 L323.5769,491.927015 Z M364.482826,491.927015 L491.927015,619.371203 L619.372016,491.927015 L491.927015,364.483638 L364.482826,491.927015 Z M381.400929,491.927015 L491.927015,381.400929 L602.453912,491.927015 L491.927015,602.453912 L381.400929,491.927015 Z M425.230099,491.927015 L491.927015,558.624743 L558.62393,491.927015 L491.927015,425.230099 L425.230099,491.927015 Z M439.224146,491.927015 L491.927015,439.223334 L544.630696,491.927015 L491.927015,544.630696 L439.224146,491.927015 Z M485.980621,491.924578 L491.927015,497.882343 L497.874221,491.924578 L491.927015,485.978184 L485.980621,491.924578 Z" id="texture-home" fill="#F06754"></path>
    </g>
</svg>